<svg width="32" height="32" viewBox="0 0 32 32" fill="none" xmlns="http://www.w3.org/2000/svg">
<g clip-path="url(#clip0_18_6274)">
<rect width="32" height="32" rx="12" fill="white"/>
<g clip-path="url(#clip1_18_6274)">
<rect width="32" height="32" fill="#F0B90B"/>
<g clip-path="url(#clip2_18_6274)">
<path fill-rule="evenodd" clip-rule="evenodd" d="M16 0C24.8372 0 32 7.16282 32 16C32 24.8372 24.8372 32 16 32C7.16282 32 0 24.8372 0 16C0 7.16282 7.16282 0 16 0Z" fill="#F0B90B"/>
<path d="M8.79379 15.9999L8.80532 20.2307L12.4002 22.3461V24.823L6.70148 21.4807V14.7627L8.79379 15.9999ZM8.79379 11.7692V14.2345L6.7002 12.9961V10.5307L8.79379 9.29224L10.8976 10.5307L8.79379 11.7692ZM13.9015 10.5307L15.9951 9.29224L18.0989 10.5307L15.9951 11.7692L13.9015 10.5307Z" fill="white"/>
<path d="M10.2998 19.3538V16.8769L12.3934 18.1153V20.5807L10.2998 19.3538ZM13.8947 23.2333L15.9883 24.4717L18.0921 23.2333V25.6986L15.9883 26.9371L13.8947 25.6986V23.2333ZM21.0947 10.5307L23.1883 9.29224L25.2921 10.5307V12.9961L23.1883 14.2345V11.7692L21.0947 10.5307ZM23.1883 20.2307L23.1998 15.9999L25.2934 14.7615V21.4794L19.5947 24.8217V22.3448L23.1883 20.2307Z" fill="white"/>
<path d="M21.6932 19.3535L19.5996 20.5804V18.115L21.6932 16.8766V19.3535Z" fill="white"/>
<path d="M21.687 12.6458L21.6985 15.1228L18.0934 17.2381V21.4792L15.9998 22.7061L13.9062 21.4792V17.2381L10.3011 15.1228V12.6458L12.4037 11.4074L15.987 13.533L19.5921 11.4074L21.696 12.6458H21.687ZM10.2998 8.41635L15.9883 5.0625L21.687 8.41635L19.5934 9.65481L15.9883 7.52917L12.3934 9.65481L10.2998 8.41635Z" fill="white"/>
</g>
</g>
</g>
<defs>
<clipPath id="clip0_18_6274">
<rect width="32" height="32" rx="12" fill="white"/>
</clipPath>
<clipPath id="clip1_18_6274">
<rect width="32" height="32" fill="white"/>
</clipPath>
<clipPath id="clip2_18_6274">
<rect width="32" height="32" fill="white"/>
</clipPath>
</defs>
</svg>
